{
  "source": "C:\\Users\\Peter\\Desktop\\stuff\\MIUN\\quantitative_research\\video_compression\\videos\\HEVC_CLASS_B\\BQTerrace_1920x1080_60.y4m",
  "output": "C:\\Users\\Peter\\Desktop\\stuff\\MIUN\\quantitative_research\\video_compression\\compressed_videos\\HEVC_CLASS_B\\av1\\1\\BQTerrace_1920x1080_60_av1.mkv",
  "codec": "av1",
  "ok": "Input #0, yuv4mpegpipe, from 'C:\\Users\\Peter\\Desktop\\stuff\\MIUN\\quantitative_research\\video_compression\\videos\\HEVC_CLASS_B\\BQTerrace_1920x1080_60.y4m':\n  Duration: 00:00:10.00, start: 0.000000, bitrate: 1492994 kb/s\n  Stream #0:0: Video: rawvideo (I420 / 0x30323449), yuv420p(progressive), 1920x1080, 60 fps, 60 tbr, 60 tbn\n[out#0/matroska @ 0000019f3e6e8ec0] Codec AVOption b:a (set bitrate (in bits/s)) has not been used for any stream. The most likely reason is either wrong type (e.g. a video option with no video streams) or that it is a private option of some decoder which was not actually used for any stream.\nStream mapping:\n  Stream #0:0 -> #0:0 (rawvideo (native) -> av1 (libsvtav1))\nPress [q] to stop, [?] for help\nSvt[info]: -------------------------------------------\nSvt[info]: SVT [version]:\tSVT-AV1 Encoder Lib v3.1.0-19-g6ecfe8ec\nSvt[info]: SVT [build]  :\tGCC 15.2.0\t 64 bit\nSvt[info]: LIB Build date: Aug 17 2025 11:37:13\nSvt[info]: -------------------------------------------\n[libsvtav1 @ 0000019f3e6ec080] Specified chroma sample location center is unsupported on the AV1 bit stream level. Usage of a container that allows passing this information - such as Matroska - is recommended.\nSvt[info]: Level of Parallelism: 5\nSvt[info]: Number of PPCS 93\nSvt[info]: [asm level on system : up to avx2]\nSvt[info]: [asm level selected : up to avx2]\nSvt[info]: -------------------------------------------\nSvt[info]: SVT [config]: main profile\ttier (auto)\tlevel (auto)\nSvt[info]: SVT [config]: width / height / fps numerator / fps denominator \t\t: 1920 / 1080 / 60 / 1\nSvt[info]: SVT [config]: bit-depth / color format \t\t\t\t\t: 8 / YUV420\nSvt[info]: SVT [config]: preset / tune / pred struct \t\t\t\t\t: 4 / PSNR / random access\nSvt[info]: SVT [config]: gop size / mini-gop size / key-frame type \t\t\t: 321 / 16 / key frame\nSvt[info]: SVT [config]: BRC mode / target bitrate (kbps)\t\t\t\t: VBR / 1000 \nSvt[info]: SVT [config]: AQ mode / Variance Boost \t\t\t\t\t: 2 / 0\nSvt[info]: SVT [config]: sharpness / luminance-based QP bias \t\t\t\t: 0 / 0\nSvt[info]: SVT [config]: QP scale compress strength \t\t\t\t\t: 0\nSvt[info]: -------------------------------------------\nOutput #0, matroska, to 'C:\\Users\\Peter\\Desktop\\stuff\\MIUN\\quantitative_research\\video_compression\\compressed_videos\\HEVC_CLASS_B\\av1\\1\\BQTerrace_1920x1080_60_av1.mkv':\n  Metadata:\n    encoder         : Lavf62.3.100\n  Stream #0:0: Video: av1 (AV01 / 0x31305641), yuv420p(tv, progressive), 1920x1080, q=2-31, 1000 kb/s, 60 fps, 1k tbn\n    Metadata:\n      encoder         : Lavc62.11.100 libsvtav1\n    Side data:\n      cpb: bitrate max/min/avg: 0/0/1000000 buffer size: 1000000 vbv_delay: N/A\nframe=    0 fps=0.0 q=0.0 size=       0KiB time=N/A bitrate=N/A speed=N/A elapsed=0:00:00.56    \nframe=    0 fps=0.0 q=0.0 size=       0KiB time=N/A bitrate=N/A speed=N/A elapsed=0:00:01.74    \nframe=    0 fps=0.0 q=0.0 size=       0KiB time=N/A bitrate=N/A speed=N/A elapsed=0:00:02.27    \nframe=    0 fps=0.0 q=0.0 size=       0KiB time=N/A bitrate=N/A speed=N/A elapsed=0:00:02.84    \nframe=    0 fps=0.0 q=0.0 size=       0KiB time=N/A bitrate=N/A speed=N/A elapsed=0:00:03.37    \nframe=    0 fps=0.0 q=0.0 size=       0KiB time=N/A bitrate=N/A speed=N/A elapsed=0:00:03.90    \nframe=    0 fps=0.0 q=0.0 size=       0KiB time=N/A bitrate=N/A speed=N/A elapsed=0:00:04.43    \nframe=    0 fps=0.0 q=0.0 size=       0KiB time=N/A bitrate=N/A speed=N/A elapsed=0:00:04.98    \nframe=    0 fps=0.0 q=0.0 size=       0KiB time=N/A bitrate=N/A speed=N/A elapsed=0:00:05.53    \nframe=    0 fps=0.0 q=0.0 size=       0KiB time=N/A bitrate=N/A speed=N/A elapsed=0:00:06.05    \nframe=    0 fps=0.0 q=0.0 size=       0KiB time=N/A bitrate=N/A speed=N/A elapsed=0:00:06.76    \nframe=    0 fps=0.0 q=0.0 size=       0KiB time=N/A bitrate=N/A speed=N/A elapsed=0:00:08.27    \nframe=    0 fps=0.0 q=0.0 size=       0KiB time=N/A bitrate=N/A speed=N/A elapsed=0:00:09.44    \nframe=    0 fps=0.0 q=0.0 size=       0KiB time=N/A bitrate=N/A speed=N/A elapsed=0:00:10.23    \nframe=    0 fps=0.0 q=0.0 size=       0KiB time=N/A bitrate=N/A speed=N/A elapsed=0:00:10.93    \nframe=    0 fps=0.0 q=0.0 size=       0KiB time=N/A bitrate=N/A speed=N/A elapsed=0:00:11.62    \nframe=    0 fps=0.0 q=0.0 size=       0KiB time=N/A bitrate=N/A speed=N/A elapsed=0:00:12.38    \nframe=    0 fps=0.0 q=0.0 size=       0KiB time=N/A bitrate=N/A speed=N/A elapsed=0:00:13.12    \nframe=    1 fps=0.1 q=41.0 size=       1KiB time=00:00:00.00 bitrate=N/A speed=   0x elapsed=0:00:13.90    \nframe=    1 fps=0.1 q=41.0 size=       1KiB time=00:00:00.00 bitrate=N/A speed=   0x elapsed=0:00:14.42    \nframe=    1 fps=0.1 q=41.0 size=       1KiB time=00:00:00.00 bitrate=N/A speed=   0x elapsed=0:00:14.94    \nframe=    1 fps=0.1 q=41.0 size=       1KiB time=00:00:00.00 bitrate=N/A speed=   0x elapsed=0:00:15.46    \nframe=    1 fps=0.1 q=41.0 size=       1KiB time=00:00:00.00 bitrate=N/A speed=   0x elapsed=0:00:15.98    \nframe=    2 fps=0.1 q=63.0 size=       1KiB time=00:00:00.01 bitrate= 268.8kbits/s speed=0.00101x elapsed=0:00:16.51    \nframe=    5 fps=0.3 q=59.0 size=       1KiB time=00:00:00.06 bitrate=  67.2kbits/s speed=0.00392x elapsed=0:00:17.02    \nframe=    8 fps=0.5 q=60.0 size=       1KiB time=00:00:00.11 bitrate=  38.4kbits/s speed=0.00665x elapsed=0:00:17.54    \nframe=   10 fps=0.6 q=58.0 size=       1KiB time=00:00:00.13 bitrate=  33.6kbits/s speed=0.00738x elapsed=0:00:18.07    \nframe=   14 fps=0.8 q=57.0 size=       1KiB time=00:00:00.21 bitrate=  20.7kbits/s speed=0.0117x elapsed=0:00:18.59    \nframe=   15 fps=0.8 q=57.0 size=       1KiB time=00:00:00.23 bitrate=  19.2kbits/s speed=0.0122x elapsed=0:00:19.13    \nframe=   17 fps=0.9 q=48.0 size=       1KiB time=00:00:00.26 bitrate=  16.8kbits/s speed=0.0136x elapsed=0:00:19.67    \nframe=   19 fps=0.9 q=54.0 size=       1KiB time=00:00:00.30 bitrate=  14.9kbits/s speed=0.0148x elapsed=0:00:20.22    \nframe=   21 fps=1.0 q=54.0 size=       1KiB time=00:00:00.33 bitrate=  13.4kbits/s speed=0.0161x elapsed=0:00:20.76    \nframe=   22 fps=1.0 q=53.0 size=       1KiB time=00:00:00.35 bitrate=  12.8kbits/s speed=0.0164x elapsed=0:00:21.29    \nframe=   23 fps=1.1 q=53.0 size=       1KiB time=00:00:00.36 bitrate=  12.2kbits/s speed=0.0168x elapsed=0:00:21.86    \nframe=   24 fps=1.1 q=52.0 size=       1KiB time=00:00:00.38 bitrate=  11.7kbits/s speed=0.0171x elapsed=0:00:22.37    \nframe=   26 fps=1.1 q=51.0 size=       1KiB time=00:00:00.41 bitrate=  10.8kbits/s speed=0.0182x elapsed=0:00:22.91    \nframe=   27 fps=1.2 q=51.0 size=       1KiB time=00:00:00.43 bitrate=  10.3kbits/s speed=0.0185x elapsed=0:00:23.42    \nframe=   27 fps=1.1 q=51.0 size=       1KiB time=00:00:00.43 bitrate=  10.3kbits/s speed=0.0181x elapsed=0:00:23.95    \nframe=   30 fps=1.2 q=49.0 size=       1KiB time=00:00:00.48 bitrate=   9.3kbits/s speed=0.0197x elapsed=0:00:24.47    \nframe=   32 fps=1.3 q=50.0 size=       1KiB time=00:00:00.50 bitrate=   9.0kbits/s speed=0.02x elapsed=0:00:25.01    \nframe=   32 fps=1.2 q=50.0 size=       1KiB time=00:00:00.51 bitrate=   8.7kbits/s speed=0.0202x elapsed=0:00:25.63    \nframe=   34 fps=1.3 q=48.0 size=       1KiB time=00:00:00.53 bitrate=   8.4kbits/s speed=0.0204x elapsed=0:00:26.17    \nframe=   35 fps=1.3 q=51.0 size=       1KiB time=00:00:00.56 bitrate=   7.9kbits/s speed=0.0212x elapsed=0:00:26.72    \nframe=   36 fps=1.3 q=48.0 size=       1KiB time=00:00:00.58 bitrate=   7.7kbits/s speed=0.0214x elapsed=0:00:27.25    \nframe=   38 fps=1.4 q=48.0 size=       1KiB time=00:00:00.61 bitrate=   7.3kbits/s speed=0.0222x elapsed=0:00:27.78    \nframe=   38 fps=1.3 q=48.0 size=       1KiB time=00:00:00.61 bitrate=   7.3kbits/s speed=0.0218x elapsed=0:00:28.32    \nframe=   40 fps=1.4 q=48.0 size=       1KiB time=00:00:00.65 bitrate=   6.9kbits/s speed=0.0225x elapsed=0:00:28.86    \nframe=   40 fps=1.4 q=48.0 size=       1KiB time=00:00:00.65 bitrate=   6.9kbits/s speed=0.0221x elapsed=0:00:29.45    \nframe=   41 fps=1.4 q=48.0 size=       1KiB time=00:00:00.66 bitrate=   6.7kbits/s speed=0.0222x elapsed=0:00:29.97    \nframe=   43 fps=1.4 q=49.0 size=       1KiB time=00:00:00.70 bitrate=   6.4kbits/s speed=0.023x elapsed=0:00:30.49    \nframe=   44 fps=1.4 q=48.0 size=       1KiB time=00:00:00.71 bitrate=   6.3kbits/s speed=0.0231x elapsed=0:00:31.07    \nframe=   45 fps=1.4 q=50.0 size=       1KiB time=00:00:00.73 bitrate=   6.1kbits/s speed=0.0232x elapsed=0:00:31.62    \nframe=   47 fps=1.5 q=49.0 size=       1KiB time=00:00:00.76 bitrate=   5.8kbits/s speed=0.0238x elapsed=0:00:32.19    \nframe=   48 fps=1.5 q=48.0 size=       1KiB time=00:00:00.76 bitrate=   5.8kbits/s speed=0.0234x elapsed=0:00:32.72    \nframe=   49 fps=1.5 q=45.0 size=       1KiB time=00:00:00.80 bitrate=   5.6kbits/s speed=0.024x elapsed=0:00:33.27    \nframe=   50 fps=1.5 q=47.0 size=       1KiB time=00:00:00.81 bitrate=   5.5kbits/s speed=0.0242x elapsed=0:00:33.78    \nframe=   51 fps=1.5 q=50.0 size=       1KiB time=00:00:00.83 bitrate=   5.4kbits/s speed=0.0242x elapsed=0:00:34.36    \nframe=   52 fps=1.5 q=49.0 size=       1KiB time=00:00:00.85 bitrate=   5.3kbits/s speed=0.0243x elapsed=0:00:34.95    \nframe=   53 fps=1.5 q=51.0 size=       1KiB time=00:00:00.86 bitrate=   5.2kbits/s speed=0.0244x elapsed=0:00:35.50    \nframe=   53 fps=1.5 q=51.0 size=       1KiB time=00:00:00.86 bitrate=   5.2kbits/s speed=0.024x elapsed=0:00:36.03    \nframe=   55 fps=1.5 q=50.0 size=       1KiB time=00:00:00.90 bitrate=   5.0kbits/s speed=0.0246x elapsed=0:00:36.55    \nframe=   56 fps=1.5 q=47.0 size=       1KiB time=00:00:00.91 bitrate=   4.9kbits/s speed=0.0247x elapsed=0:00:37.11    \nframe=   56 fps=1.5 q=47.0 size=       1KiB time=00:00:00.91 bitrate=   4.9kbits/s speed=0.0243x elapsed=0:00:37.69    \nframe=   58 fps=1.5 q=46.0 size=       1KiB time=00:00:00.95 bitrate=   4.7kbits/s speed=0.0248x elapsed=0:00:38.23    \nframe=   59 fps=1.5 q=50.0 size=       1KiB time=00:00:00.96 bitrate=   4.6kbits/s speed=0.0249x elapsed=0:00:38.79    \nframe=   60 fps=1.5 q=46.0 size=       1KiB time=00:00:00.98 bitrate=   4.6kbits/s speed=0.025x elapsed=0:00:39.39    \nframe=   63 fps=1.6 q=50.0 size=       1KiB time=00:00:01.03 bitrate=   4.3kbits/s speed=0.0259x elapsed=0:00:39.95    \nframe=   65 fps=1.6 q=41.0 size=       1KiB time=00:00:01.06 bitrate=   4.2kbits/s speed=0.0263x elapsed=0:00:40.50    \nframe=   65 fps=1.6 q=41.0 size=       1KiB time=00:00:01.06 bitrate=   4.2kbits/s speed=0.026x elapsed=0:00:41.04    \nframe=   67 fps=1.6 q=50.0 size=       1KiB time=00:00:01.10 bitrate=   4.1kbits/s speed=0.0265x elapsed=0:00:41.56    \nframe=   69 fps=1.6 q=51.0 size=       1KiB time=00:00:01.13 bitrate=   4.0kbits/s speed=0.0269x elapsed=0:00:42.11    \nframe=   70 fps=1.6 q=47.0 size=       1KiB time=00:00:01.15 bitrate=   3.9kbits/s speed=0.027x elapsed=0:00:42.64    \nframe=   71 fps=1.6 q=49.0 size=       1KiB time=00:00:01.16 bitrate=   3.8kbits/s speed=0.027x elapsed=0:00:43.16    \nframe=   73 fps=1.7 q=41.0 size=       1KiB time=00:00:01.20 bitrate=   3.7kbits/s speed=0.0274x elapsed=0:00:43.76    \nframe=   74 fps=1.7 q=45.0 size=       1KiB time=00:00:01.21 bitrate=   3.7kbits/s speed=0.0274x elapsed=0:00:44.32    \nframe=   77 fps=1.7 q=51.0 size=       1KiB time=00:00:01.26 bitrate=   3.5kbits/s speed=0.0282x elapsed=0:00:44.87    \nframe=   77 fps=1.7 q=51.0 size=       1KiB time=00:00:01.26 bitrate=   3.5kbits/s speed=0.0279x elapsed=0:00:45.43    \nframe=   77 fps=1.7 q=51.0 size=       1KiB time=00:00:01.26 bitrate=   3.5kbits/s speed=0.0275x elapsed=0:00:45.99    \nframe=   78 fps=1.7 q=47.0 size=       1KiB time=00:00:01.28 bitrate=   3.5kbits/s speed=0.0276x elapsed=0:00:46.55    \nframe=   79 fps=1.7 q=49.0 size=       1KiB time=00:00:01.30 bitrate=   3.4kbits/s speed=0.0276x elapsed=0:00:47.10    \nframe=   81 fps=1.7 q=37.0 size=       1KiB time=00:00:01.33 bitrate=   3.4kbits/s speed=0.028x elapsed=0:00:47.64    \nframe=   82 fps=1.7 q=45.0 size=       1KiB time=00:00:01.35 bitrate=   3.3kbits/s speed=0.028x elapsed=0:00:48.19    \nframe=   84 fps=1.7 q=45.0 size=       1KiB time=00:00:01.38 bitrate=   3.2kbits/s speed=0.0284x elapsed=0:00:48.77    \nframe=   85 fps=1.7 q=49.0 size=       1KiB time=00:00:01.40 bitrate=   3.2kbits/s speed=0.0284x elapsed=0:00:49.30    \nframe=   87 fps=1.7 q=48.0 size=       1KiB time=00:00:01.41 bitrate=   3.2kbits/s speed=0.0284x elapsed=0:00:49.88    \nframe=   88 fps=1.7 q=46.0 size=       1KiB time=00:00:01.45 bitrate=   3.1kbits/s speed=0.0288x elapsed=0:00:50.43    \nframe=   89 fps=1.7 q=42.0 size=       1KiB time=00:00:01.46 bitrate=   3.1kbits/s speed=0.0288x elapsed=0:00:50.99    \nframe=   90 fps=1.7 q=46.0 size=       1KiB time=00:00:01.48 bitrate=   3.0kbits/s speed=0.0287x elapsed=0:00:51.59    \nframe=   92 fps=1.8 q=46.0 size=       1KiB time=00:00:01.51 bitrate=   3.0kbits/s speed=0.0291x elapsed=0:00:52.13    \nframe=   93 fps=1.8 q=49.0 size=       1KiB time=00:00:01.53 bitrate=   2.9kbits/s speed=0.0291x elapsed=0:00:52.67    \nframe=   93 fps=1.7 q=49.0 size=       1KiB time=00:00:01.53 bitrate=   2.9kbits/s speed=0.0288x elapsed=0:00:53.23    \nframe=   94 fps=1.7 q=46.0 size=       1KiB time=00:00:01.55 bitrate=   2.9kbits/s speed=0.0288x elapsed=0:00:53.75    \nframe=   95 fps=1.7 q=48.0 size=       1KiB time=00:00:01.56 bitrate=   2.9kbits/s speed=0.0288x elapsed=0:00:54.30    \nframe=   96 fps=1.8 q=46.0 size=       1KiB time=00:00:01.58 bitrate=   2.8kbits/s speed=0.0289x elapsed=0:00:54.85    \nframe=   98 fps=1.8 q=47.0 size=       1KiB time=00:00:01.61 bitrate=   2.8kbits/s speed=0.0292x elapsed=0:00:55.38    \nframe=  100 fps=1.8 q=47.0 size=       1KiB time=00:00:01.65 bitrate=   2.7kbits/s speed=0.0295x elapsed=0:00:55.91    \nframe=  101 fps=1.8 q=49.0 size=       1KiB time=00:00:01.66 bitrate=   2.7kbits/s speed=0.0295x elapsed=0:00:56.42    \nframe=  102 fps=1.8 q=48.0 size=       1KiB time=00:00:01.68 bitrate=   2.7kbits/s speed=0.0296x elapsed=0:00:56.95    \nframe=  103 fps=1.8 q=48.0 size=       1KiB time=00:00:01.70 bitrate=   2.6kbits/s speed=0.0296x elapsed=0:00:57.48    \nframe=  106 fps=1.8 q=49.0 size=       1KiB time=00:00:01.75 bitrate=   2.6kbits/s speed=0.0302x elapsed=0:00:58.00    \nframe=  107 fps=1.8 q=49.0 size=       1KiB time=00:00:01.76 bitrate=   2.5kbits/s speed=0.0302x elapsed=0:00:58.53    \nframe=  110 fps=1.9 q=49.0 size=       1KiB time=00:00:01.81 bitrate=   2.5kbits/s speed=0.0308x elapsed=0:00:59.05    \nframe=  112 fps=1.9 q=49.0 size=       1KiB time=00:00:01.85 bitrate=   2.4kbits/s speed=0.031x elapsed=0:00:59.60    \nframe=  114 fps=1.9 q=49.0 size=       1KiB time=00:00:01.88 bitrate=   2.4kbits/s speed=0.0313x elapsed=0:01:00.13    \nframe=  115 fps=1.9 q=49.0 size=       1KiB time=00:00:01.90 bitrate=   2.4kbits/s speed=0.0313x elapsed=0:01:00.68    \nframe=  117 fps=1.9 q=49.0 size=       1KiB time=00:00:01.93 bitrate=   2.3kbits/s speed=0.0316x elapsed=0:01:01.21    \nframe=  118 fps=1.9 q=49.0 size=       1KiB time=00:00:01.93 bitrate=   2.3kbits/s speed=0.0313x elapsed=0:01:01.79    \nframe=  119 fps=1.9 q=49.0 size=       1KiB time=00:00:01.96 bitrate=   2.3kbits/s speed=0.0315x elapsed=0:01:02.34    \nframe=  121 fps=1.9 q=44.0 size=       1KiB time=00:00:02.00 bitrate=   2.2kbits/s speed=0.0318x elapsed=0:01:02.91    \nframe=  122 fps=1.9 q=49.0 size=       1KiB time=00:00:02.01 bitrate=   2.2kbits/s speed=0.0318x elapsed=0:01:03.48    \nframe=  125 fps=2.0 q=49.0 size=       1KiB time=00:00:02.06 bitrate=   2.2kbits/s speed=0.0323x elapsed=0:01:04.04    \nframe=  125 fps=1.9 q=49.0 size=       1KiB time=00:00:02.06 bitrate=   2.2kbits/s speed=0.032x elapsed=0:01:04.57    \nframe=  126 fps=1.9 q=49.0 size=       1KiB time=00:00:02.08 bitrate=   2.2kbits/s speed=0.032x elapsed=0:01:05.11    \nframe=  127 fps=1.9 q=49.0 size=       1KiB time=00:00:02.10 bitrate=   2.1kbits/s speed=0.032x elapsed=0:01:05.66    \nframe=  129 fps=1.9 q=40.0 size=       1KiB time=00:00:02.13 bitrate=   2.1kbits/s speed=0.0322x elapsed=0:01:06.21    \nframe=  131 fps=2.0 q=49.0 size=       1KiB time=00:00:02.16 bitrate=   2.1kbits/s speed=0.0325x elapsed=0:01:06.73    \nframe=  133 fps=2.0 q=50.0 size=       1KiB time=00:00:02.20 bitrate=   2.0kbits/s speed=0.0327x elapsed=0:01:07.26    \nframe=  134 fps=2.0 q=49.0 size=       1KiB time=00:00:02.21 bitrate=   2.0kbits/s speed=0.0327x elapsed=0:01:07.78    \nframe=  136 fps=2.0 q=49.0 size=       1KiB time=00:00:02.25 bitrate=   2.0kbits/s speed=0.0329x elapsed=0:01:08.34    \nframe=  138 fps=2.0 q=49.0 size=       1KiB time=00:00:02.28 bitrate=   2.0kbits/s speed=0.0332x elapsed=0:01:08.86    \nframe=  139 fps=2.0 q=49.0 size=       1KiB time=00:00:02.30 bitrate=   1.9kbits/s speed=0.0331x elapsed=0:01:09.43    \nframe=  141 fps=2.0 q=50.0 size=       1KiB time=00:00:02.33 bitrate=   1.9kbits/s speed=0.0334x elapsed=0:01:09.95    \nframe=  142 fps=2.0 q=48.0 size=       1KiB time=00:00:02.35 bitrate=   1.9kbits/s speed=0.0333x elapsed=0:01:10.47    \nframe=  143 fps=2.0 q=47.0 size=       1KiB time=00:00:02.36 bitrate=   1.9kbits/s speed=0.0333x elapsed=0:01:11.00    \nframe=  145 fps=2.0 q=40.0 size=       1KiB time=00:00:02.40 bitrate=   1.9kbits/s speed=0.0335x elapsed=0:01:11.55    \nframe=  146 fps=2.0 q=49.0 size=       1KiB time=00:00:02.41 bitrate=   1.9kbits/s speed=0.0335x elapsed=0:01:12.10    \nframe=  149 fps=2.0 q=49.0 size=       1KiB time=00:00:02.46 bitrate=   1.8kbits/s speed=0.0339x elapsed=0:01:12.68    \nframe=  149 fps=2.0 q=49.0 size=       1KiB time=00:00:02.46 bitrate=   1.8kbits/s speed=0.0337x elapsed=0:01:13.24    \nframe=  151 fps=2.0 q=49.0 size=       1KiB time=00:00:02.50 bitrate=   1.8kbits/s speed=0.0339x elapsed=0:01:13.76    \nframe=  153 fps=2.1 q=44.0 size=       1KiB time=00:00:02.53 bitrate=   1.8kbits/s speed=0.0341x elapsed=0:01:14.31    \nframe=  154 fps=2.1 q=48.0 size=       1KiB time=00:00:02.55 bitrate=   1.8kbits/s speed=0.0341x elapsed=0:01:14.86    \nframe=  155 fps=2.1 q=48.0 size=       1KiB time=00:00:02.56 bitrate=   1.7kbits/s speed=0.034x elapsed=0:01:15.38    \nframe=  158 fps=2.1 q=48.0 size=       1KiB time=00:00:02.61 bitrate=   1.7kbits/s speed=0.0345x elapsed=0:01:15.90    \nframe=  159 fps=2.1 q=48.0 size=       1KiB time=00:00:02.63 bitrate=   1.7kbits/s speed=0.0345x elapsed=0:01:16.42    \nframe=  161 fps=2.1 q=40.0 size=       1KiB time=00:00:02.66 bitrate=   1.7kbits/s speed=0.0347x elapsed=0:01:16.95    \nframe=  162 fps=2.1 q=48.0 size=       1KiB time=00:00:02.68 bitrate=   1.7kbits/s speed=0.0346x elapsed=0:01:17.47    \nframe=  163 fps=2.1 q=48.0 size=       1KiB time=00:00:02.70 bitrate=   1.7kbits/s speed=0.0346x elapsed=0:01:17.99    \nframe=  165 fps=2.1 q=48.0 size=       1KiB time=00:00:02.73 bitrate=   1.6kbits/s speed=0.0348x elapsed=0:01:18.54    \nframe=  166 fps=2.1 q=48.0 size=       1KiB time=00:00:02.75 bitrate=   1.6kbits/s speed=0.0348x elapsed=0:01:19.08    \nframe=  168 fps=2.1 q=48.0 size=       1KiB time=00:00:02.78 bitrate=   1.6kbits/s speed=0.0349x elapsed=0:01:19.63    \nframe=  169 fps=2.1 q=44.0 size=       1KiB time=00:00:02.80 bitrate=   1.6kbits/s speed=0.0349x elapsed=0:01:20.16    \nframe=  171 fps=2.1 q=48.0 size=       1KiB time=00:00:02.83 bitrate=   1.6kbits/s speed=0.0351x elapsed=0:01:20.68    \nframe=  172 fps=2.1 q=48.0 size=       1KiB time=00:00:02.85 bitrate=   1.6kbits/s speed=0.0351x elapsed=0:01:21.21    \nframe=  175 fps=2.1 q=48.0 size=       1KiB time=00:00:02.90 bitrate=   1.5kbits/s speed=0.0355x elapsed=0:01:21.74    \nframe=  177 fps=2.2 q=40.0 size=       1KiB time=00:00:02.93 bitrate=   1.5kbits/s speed=0.0357x elapsed=0:01:22.27    \nframe=  178 fps=2.1 q=48.0 size=       1KiB time=00:00:02.95 bitrate=   1.5kbits/s speed=0.0356x elapsed=0:01:22.80    \nframe=  178 fps=2.1 q=48.0 size=       1KiB time=00:00:02.95 bitrate=   1.5kbits/s speed=0.0354x elapsed=0:01:23.33    \nframe=  180 fps=2.1 q=48.0 size=       1KiB time=00:00:02.98 bitrate=   1.5kbits/s speed=0.0356x elapsed=0:01:23.84    \nframe=  182 fps=2.2 q=48.0 size=       1KiB time=00:00:03.01 bitrate=   1.5kbits/s speed=0.0358x elapsed=0:01:24.35    \nframe=  183 fps=2.2 q=48.0 size=       1KiB time=00:00:03.03 bitrate=   1.5kbits/s speed=0.0357x elapsed=0:01:24.89    \nframe=  183 fps=2.1 q=48.0 size=       1KiB time=00:00:03.03 bitrate=   1.5kbits/s speed=0.0355x elapsed=0:01:25.41    \nframe=  184 fps=2.1 q=48.0 size=       1KiB time=00:00:03.05 bitrate=   1.5kbits/s speed=0.0355x elapsed=0:01:25.94    \nframe=  187 fps=2.2 q=48.0 size=       1KiB time=00:00:03.10 bitrate=   1.4kbits/s speed=0.0358x elapsed=0:01:26.48    \nframe=  188 fps=2.2 q=48.0 size=       1KiB time=00:00:03.11 bitrate=   1.4kbits/s speed=0.0358x elapsed=0:01:27.03    \nframe=  189 fps=2.2 q=48.0 size=       1KiB time=00:00:03.13 bitrate=   1.4kbits/s speed=0.0358x elapsed=0:01:27.55    \nframe=  191 fps=2.2 q=46.0 size=       1KiB time=00:00:03.16 bitrate=   1.4kbits/s speed=0.0359x elapsed=0:01:28.09    \nframe=  193 fps=2.2 q=40.0 size=       1KiB time=00:00:03.20 bitrate=   1.4kbits/s speed=0.0361x elapsed=0:01:28.61    \nframe=  194 fps=2.2 q=48.0 size=       1KiB time=00:00:03.21 bitrate=   1.4kbits/s speed=0.0361x elapsed=0:01:29.13    \nframe=  197 fps=2.2 q=48.0 size=       1KiB time=00:00:03.26 bitrate=   1.4kbits/s speed=0.0364x elapsed=0:01:29.68    \nframe=  198 fps=2.2 q=48.0 size=       1KiB time=00:00:03.28 bitrate=   1.4kbits/s speed=0.0364x elapsed=0:01:30.20    \nframe=  199 fps=2.2 q=48.0 size=       1KiB time=00:00:03.30 bitrate=   1.4kbits/s speed=0.0364x elapsed=0:01:30.73    \nframe=  203 fps=2.2 q=48.0 size=       1KiB time=00:00:03.36 bitrate=   1.3kbits/s speed=0.0369x elapsed=0:01:31.26    \nframe=  204 fps=2.2 q=48.0 size=       1KiB time=00:00:03.38 bitrate=   1.3kbits/s speed=0.0369x elapsed=0:01:31.81    \nframe=  206 fps=2.2 q=48.0 size=       1KiB time=00:00:03.40 bitrate=   1.3kbits/s speed=0.0368x elapsed=0:01:32.35    \nframe=  208 fps=2.2 q=48.0 size=       1KiB time=00:00:03.45 bitrate=   1.3kbits/s speed=0.0371x elapsed=0:01:32.91    \nframe=  209 fps=2.2 q=40.0 size=       1KiB time=00:00:03.46 bitrate=   1.3kbits/s speed=0.0371x elapsed=0:01:33.44    \nframe=  211 fps=2.2 q=48.0 size=       1KiB time=00:00:03.50 bitrate=   1.3kbits/s speed=0.0372x elapsed=0:01:34.00    \nframe=  212 fps=2.2 q=48.0 size=       1KiB time=00:00:03.51 bitrate=   1.3kbits/s speed=0.0372x elapsed=0:01:34.51    \nframe=  213 fps=2.2 q=48.0 size=       1KiB time=00:00:03.53 bitrate=   1.3kbits/s speed=0.0371x elapsed=0:01:35.11    \nframe=  215 fps=2.2 q=48.0 size=       1KiB time=00:00:03.56 bitrate=   1.3kbits/s speed=0.0373x elapsed=0:01:35.67    \nframe=  215 fps=2.2 q=48.0 size=       1KiB time=00:00:03.56 bitrate=   1.3kbits/s speed=0.0371x elapsed=0:01:36.26    \nframe=  218 fps=2.3 q=48.0 size=       1KiB time=00:00:03.60 bitrate=   1.2kbits/s speed=0.0372x elapsed=0:01:36.83    \nframe=  219 fps=2.2 q=48.0 size=       1KiB time=00:00:03.63 bitrate=   1.2kbits/s speed=0.0373x elapsed=0:01:37.41    \nframe=  220 fps=2.2 q=46.0 size=       1KiB time=00:00:03.65 bitrate=   1.2kbits/s speed=0.0373x elapsed=0:01:37.98    \nframe=  223 fps=2.3 q=47.0 size=       1KiB time=00:00:03.70 bitrate=   1.2kbits/s speed=0.0376x elapsed=0:01:38.52    \nframe=  225 fps=2.3 q=40.0 size=       1KiB time=00:00:03.73 bitrate=   1.2kbits/s speed=0.0377x elapsed=0:01:39.06    \nframe=  227 fps=2.3 q=48.0 size=       1KiB time=00:00:03.76 bitrate=   1.2kbits/s speed=0.0378x elapsed=0:01:39.59    \nframe=  229 fps=2.3 q=48.0 size=       1KiB time=00:00:03.80 bitrate=   1.2kbits/s speed=0.038x elapsed=0:01:40.11    \nframe=  230 fps=2.3 q=48.0 size=       1KiB time=00:00:03.81 bitrate=   1.2kbits/s speed=0.0379x elapsed=0:01:40.63    \nframe=  230 fps=2.3 q=48.0 size=       1KiB time=00:00:03.81 bitrate=   1.2kbits/s speed=0.0377x elapsed=0:01:41.19    \nframe=  231 fps=2.3 q=48.0 size=       1KiB time=00:00:03.83 bitrate=   1.2kbits/s speed=0.0377x elapsed=0:01:41.70    \nframe=  233 fps=2.3 q=44.0 size=       1KiB time=00:00:03.86 bitrate=   1.2kbits/s speed=0.0378x elapsed=0:01:42.22    \nframe=  235 fps=2.3 q=49.0 size=       1KiB time=00:00:03.90 bitrate=   1.1kbits/s speed=0.038x elapsed=0:01:42.75    \nframe=  235 fps=2.3 q=49.0 size=       1KiB time=00:00:03.90 bitrate=   1.1kbits/s speed=0.0378x elapsed=0:01:43.29    \nframe=  237 fps=2.3 q=49.0 size=       1KiB time=00:00:03.93 bitrate=   1.1kbits/s speed=0.0379x elapsed=0:01:43.81    \nframe=  239 fps=2.3 q=48.0 size=       1KiB time=00:00:03.96 bitrate=   1.1kbits/s speed=0.038x elapsed=0:01:44.36    \nframe=  241 fps=2.3 q=40.0 size=       1KiB time=00:00:04.00 bitrate=   1.1kbits/s speed=0.0381x elapsed=0:01:44.93    \nframe=  242 fps=2.3 q=49.0 size=       1KiB time=00:00:04.01 bitrate=   1.1kbits/s speed=0.0381x elapsed=0:01:45.51    \nframe=  244 fps=2.3 q=49.0 size=       1KiB time=00:00:04.03 bitrate=   1.1kbits/s speed=0.038x elapsed=0:01:46.13    \nframe=  245 fps=2.3 q=49.0 size=       1KiB time=00:00:04.06 bitrate=   1.1kbits/s speed=0.0381x elapsed=0:01:46.69    \nframe=  248 fps=2.3 q=49.0 size=       1KiB time=00:00:04.10 bitrate=   1.1kbits/s speed=0.0382x elapsed=0:01:47.24    \nframe=  250 fps=2.3 q=49.0 size=       1KiB time=00:00:04.15 bitrate=   1.1kbits/s speed=0.0385x elapsed=0:01:47.84    \nframe=  251 fps=2.3 q=49.0 size=       1KiB time=00:00:04.16 bitrate=   1.1kbits/s speed=0.0384x elapsed=0:01:48.38    \nframe=  253 fps=2.3 q=50.0 size=       1KiB time=00:00:04.18 bitrate=   1.1kbits/s speed=0.0384x elapsed=0:01:48.92    \nframe=  254 fps=2.3 q=49.0 size=       1KiB time=00:00:04.21 bitrate=   1.1kbits/s speed=0.0385x elapsed=0:01:49.51    \nframe=  255 fps=2.3 q=49.0 size=       1KiB time=00:00:04.23 bitrate=   1.1kbits/s speed=0.0385x elapsed=0:01:50.05    \nframe=  258 fps=2.3 q=49.0 size=       1KiB time=00:00:04.28 bitrate=   1.0kbits/s speed=0.0387x elapsed=0:01:50.56    \nframe=  260 fps=2.3 q=49.0 size=       1KiB time=00:00:04.30 bitrate=   1.0kbits/s speed=0.0387x elapsed=0:01:51.09    \nframe=  262 fps=2.3 q=49.0 size=       1KiB time=00:00:04.33 bitrate=   1.0kbits/s speed=0.0388x elapsed=0:01:51.63    \nframe=  264 fps=2.3 q=49.0 size=       1KiB time=00:00:04.36 bitrate=   1.0kbits/s speed=0.0388x elapsed=0:01:52.58    \nframe=  267 fps=2.4 q=50.0 size=       1KiB time=00:00:04.41 bitrate=   1.0kbits/s speed=0.039x elapsed=0:01:53.30    \nframe=  269 fps=2.4 q=51.0 size=       1KiB time=00:00:04.46 bitrate=   1.0kbits/s speed=0.0392x elapsed=0:01:54.04    \nframe=  270 fps=2.4 q=49.0 size=       1KiB time=00:00:04.48 bitrate=   1.0kbits/s speed=0.0391x elapsed=0:01:54.59    \nframe=  272 fps=2.4 q=49.0 size=       1KiB time=00:00:04.51 bitrate=   1.0kbits/s speed=0.0392x elapsed=0:01:55.11    \nframe=  274 fps=2.4 q=49.0 size=       1KiB time=00:00:04.53 bitrate=   1.0kbits/s speed=0.0392x elapsed=0:01:55.63    \nframe=  275 fps=2.4 q=50.0 size=       1KiB time=00:00:04.56 bitrate=   1.0kbits/s speed=0.0393x elapsed=0:01:56.27    \nframe=  277 fps=2.4 q=51.0 size=       1KiB time=00:00:04.60 bitrate=   1.0kbits/s speed=0.0394x elapsed=0:01:56.82    \nframe=  278 fps=2.4 q=49.0 size=       1KiB time=00:00:04.60 bitrate=   1.0kbits/s speed=0.0392x elapsed=0:01:57.36    \nframe=  278 fps=2.4 q=49.0 size=       1KiB time=00:00:04.61 bitrate=   1.0kbits/s speed=0.0391x elapsed=0:01:57.95    \nframe=  280 fps=2.4 q=49.0 size=       1KiB time=00:00:04.63 bitrate=   1.0kbits/s speed=0.0391x elapsed=0:01:58.56    \nframe=  281 fps=2.4 q=44.0 size=       1KiB time=00:00:04.66 bitrate=   1.0kbits/s speed=0.0392x elapsed=0:01:59.15    \nframe=  282 fps=2.4 q=49.0 size=       1KiB time=00:00:04.68 bitrate=   1.0kbits/s speed=0.0391x elapsed=0:01:59.70    \nframe=  284 fps=2.4 q=49.0 size=       1KiB time=00:00:04.71 bitrate=   0.9kbits/s speed=0.0392x elapsed=0:02:00.31    \nframe=  285 fps=2.4 q=52.0 size=       1KiB time=00:00:04.73 bitrate=   0.9kbits/s speed=0.0392x elapsed=0:02:00.86    \nframe=  287 fps=2.4 q=50.0 size=       1KiB time=00:00:04.76 bitrate=   0.9kbits/s speed=0.0392x elapsed=0:02:01.46    \nframe=  288 fps=2.4 q=45.0 size=       1KiB time=00:00:04.78 bitrate=   0.9kbits/s speed=0.0392x elapsed=0:02:02.08    \nframe=  290 fps=2.4 q=51.0 size=       1KiB time=00:00:04.81 bitrate=   0.9kbits/s speed=0.0393x elapsed=0:02:02.63    \nframe=  292 fps=2.4 q=51.0 size=       1KiB time=00:00:04.83 bitrate=   0.9kbits/s speed=0.0392x elapsed=0:02:03.27    \nframe=  294 fps=2.4 q=51.0 size=       1KiB time=00:00:04.86 bitrate=   0.9kbits/s speed=0.0393x elapsed=0:02:03.81    \nframe=  296 fps=2.4 q=51.0 size=       1KiB time=00:00:04.90 bitrate=   0.9kbits/s speed=0.0394x elapsed=0:02:04.42    \nframe=  299 fps=2.4 q=51.0 size=       1KiB time=00:00:04.96 bitrate=   0.9kbits/s speed=0.0397x elapsed=0:02:05.05    \nframe=  300 fps=2.4 q=50.0 size=       1KiB time=00:00:04.98 bitrate=   0.9kbits/s speed=0.0397x elapsed=0:02:05.56    \nframe=  303 fps=2.4 q=50.0 size=     512KiB time=00:00:05.03 bitrate= 833.3kbits/s speed=0.0399x elapsed=0:02:06.09    \nframe=  305 fps=2.4 q=40.0 size=     512KiB time=00:00:05.06 bitrate= 827.8kbits/s speed=0.04x elapsed=0:02:06.60    \nframe=  306 fps=2.4 q=50.0 size=     512KiB time=00:00:05.08 bitrate= 825.1kbits/s speed=0.04x elapsed=0:02:07.11    \nframe=  308 fps=2.4 q=50.0 size=     512KiB time=00:00:05.11 bitrate= 819.7kbits/s speed=0.0401x elapsed=0:02:07.62    \nframe=  309 fps=2.4 q=50.0 size=     512KiB time=00:00:05.13 bitrate= 817.1kbits/s speed=0.0401x elapsed=0:02:08.14    \nframe=  311 fps=2.4 q=50.0 size=     512KiB time=00:00:05.16 bitrate= 811.8kbits/s speed=0.0402x elapsed=0:02:08.66    \nframe=  312 fps=2.4 q=50.0 size=     512KiB time=00:00:05.18 bitrate= 809.2kbits/s speed=0.0401x elapsed=0:02:09.18    \nframe=  313 fps=2.4 q=50.0 size=     512KiB time=00:00:05.20 bitrate= 806.6kbits/s speed=0.0401x elapsed=0:02:09.69    \nframe=  313 fps=2.4 q=50.0 size=     512KiB time=00:00:05.20 bitrate= 806.6kbits/s speed=0.0399x elapsed=0:02:10.20    \nframe=  315 fps=2.4 q=50.0 size=     512KiB time=00:00:05.23 bitrate= 801.5kbits/s speed=0.04x elapsed=0:02:10.73    \nframe=  316 fps=2.4 q=50.0 size=     512KiB time=00:00:05.25 bitrate= 798.9kbits/s speed=0.04x elapsed=0:02:11.23    \nframe=  316 fps=2.4 q=50.0 size=     512KiB time=00:00:05.25 bitrate= 798.9kbits/s speed=0.0398x elapsed=0:02:11.75    \nframe=  316 fps=2.4 q=50.0 size=     512KiB time=00:00:05.25 bitrate= 798.9kbits/s speed=0.0397x elapsed=0:02:12.27    \nframe=  316 fps=2.4 q=50.0 size=     512KiB time=00:00:05.25 bitrate= 798.9kbits/s speed=0.0395x elapsed=0:02:12.78    \nframe=  316 fps=2.4 q=50.0 size=     512KiB time=00:00:05.25 bitrate= 798.9kbits/s speed=0.0394x elapsed=0:02:13.30    \nframe=  316 fps=2.4 q=50.0 size=     512KiB time=00:00:05.25 bitrate= 798.9kbits/s speed=0.0392x elapsed=0:02:13.81    \nframe=  316 fps=2.4 q=50.0 size=     512KiB time=00:00:05.25 bitrate= 798.9kbits/s speed=0.0391x elapsed=0:02:14.33    \nframe=  316 fps=2.3 q=50.0 size=     512KiB time=00:00:05.25 bitrate= 798.9kbits/s speed=0.0389x elapsed=0:02:14.84    \nframe=  316 fps=2.3 q=50.0 size=     512KiB time=00:00:05.25 bitrate= 798.9kbits/s speed=0.0388x elapsed=0:02:15.36    \nframe=  316 fps=2.3 q=50.0 size=     512KiB time=00:00:05.25 bitrate= 798.9kbits/s speed=0.0386x elapsed=0:02:15.87    \nframe=  316 fps=2.3 q=50.0 size=     512KiB time=00:00:05.25 bitrate= 798.9kbits/s speed=0.0385x elapsed=0:02:16.39    \nframe=  316 fps=2.3 q=50.0 size=     512KiB time=00:00:05.25 bitrate= 798.9kbits/s speed=0.0383x elapsed=0:02:16.90    \nframe=  316 fps=2.3 q=50.0 size=     512KiB time=00:00:05.25 bitrate= 798.9kbits/s speed=0.0382x elapsed=0:02:17.42    \nframe=  317 fps=2.3 q=50.0 size=     512KiB time=00:00:05.26 bitrate= 796.4kbits/s speed=0.0382x elapsed=0:02:17.93    \nframe=  317 fps=2.3 q=50.0 size=     512KiB time=00:00:05.26 bitrate= 796.4kbits/s speed=0.038x elapsed=0:02:18.45    \nframe=  317 fps=2.3 q=50.0 size=     512KiB time=00:00:05.26 bitrate= 796.4kbits/s speed=0.0379x elapsed=0:02:18.98    \nframe=  317 fps=2.3 q=50.0 size=     512KiB time=00:00:05.26 bitrate= 796.4kbits/s speed=0.0378x elapsed=0:02:19.49    \nframe=  317 fps=2.3 q=50.0 size=     512KiB time=00:00:05.26 bitrate= 796.4kbits/s speed=0.0376x elapsed=0:02:20.02    \nframe=  318 fps=2.3 q=50.0 size=     512KiB time=00:00:05.28 bitrate= 793.9kbits/s speed=0.0376x elapsed=0:02:20.53    \nframe=  319 fps=2.3 q=50.0 size=     512KiB time=00:00:05.30 bitrate= 791.4kbits/s speed=0.0376x elapsed=0:02:21.05    \nframe=  320 fps=2.3 q=50.0 size=     512KiB time=00:00:05.31 bitrate= 788.9kbits/s speed=0.0376x elapsed=0:02:21.57    \nframe=  322 fps=2.3 q=33.0 size=     512KiB time=00:00:05.35 bitrate= 784.0kbits/s speed=0.0377x elapsed=0:02:22.08    \nframe=  323 fps=2.3 q=53.0 size=     512KiB time=00:00:05.36 bitrate= 781.5kbits/s speed=0.0376x elapsed=0:02:22.60    \nframe=  325 fps=2.3 q=55.0 size=     512KiB time=00:00:05.40 bitrate= 776.7kbits/s speed=0.0377x elapsed=0:02:23.11    \nframe=  327 fps=2.3 q=57.0 size=     512KiB time=00:00:05.43 bitrate= 772.0kbits/s speed=0.0378x elapsed=0:02:23.62    \nframe=  328 fps=2.3 q=57.0 size=     512KiB time=00:00:05.45 bitrate= 769.6kbits/s speed=0.0378x elapsed=0:02:24.14    \nframe=  331 fps=2.3 q=52.0 size=     512KiB time=00:00:05.50 bitrate= 762.6kbits/s speed=0.038x elapsed=0:02:24.65    \nframe=  333 fps=2.3 q=52.0 size=     512KiB time=00:00:05.53 bitrate= 758.0kbits/s speed=0.0381x elapsed=0:02:25.17    \nframe=  333 fps=2.3 q=52.0 size=     512KiB time=00:00:05.53 bitrate= 758.0kbits/s speed=0.038x elapsed=0:02:25.68    \nframe=  333 fps=2.3 q=52.0 size=     512KiB time=00:00:05.53 bitrate= 758.0kbits/s speed=0.0378x elapsed=0:02:26.20    \nframe=  333 fps=2.3 q=52.0 size=     512KiB time=00:00:05.53 bitrate= 758.0kbits/s speed=0.0377x elapsed=0:02:26.73    \nframe=  333 fps=2.3 q=52.0 size=     512KiB time=00:00:05.53 bitrate= 758.0kbits/s speed=0.0376x elapsed=0:02:27.24    \nframe=  335 fps=2.3 q=52.0 size=     512KiB time=00:00:05.56 bitrate= 753.5kbits/s speed=0.0377x elapsed=0:02:27.75    \nframe=  336 fps=2.3 q=54.0 size=     512KiB time=00:00:05.58 bitrate= 751.2kbits/s speed=0.0377x elapsed=0:02:28.27    \nframe=  339 fps=2.3 q=52.0 size=     512KiB time=00:00:05.63 bitrate= 744.6kbits/s speed=0.0379x elapsed=0:02:28.78    \nframe=  341 fps=2.3 q=52.0 size=     512KiB time=00:00:05.66 bitrate= 740.2kbits/s speed=0.038x elapsed=0:02:29.30    \nframe=  343 fps=2.3 q=52.0 size=     512KiB time=00:00:05.70 bitrate= 735.8kbits/s speed=0.038x elapsed=0:02:29.82    \nframe=  345 fps=2.3 q=52.0 size=     512KiB time=00:00:05.73 bitrate= 731.6kbits/s speed=0.0381x elapsed=0:02:30.33    \nframe=  346 fps=2.3 q=46.0 size=     512KiB time=00:00:05.75 bitrate= 729.4kbits/s speed=0.0381x elapsed=0:02:30.84    \nframe=  347 fps=2.3 q=52.0 size=     512KiB time=00:00:05.76 bitrate= 727.3kbits/s speed=0.0381x elapsed=0:02:31.36    \nframe=  349 fps=2.3 q=52.0 size=     512KiB time=00:00:05.80 bitrate= 723.2kbits/s speed=0.0382x elapsed=0:02:31.88    \nframe=  350 fps=2.3 q=55.0 size=     512KiB time=00:00:05.81 bitrate= 721.1kbits/s speed=0.0382x elapsed=0:02:32.40    \nframe=  350 fps=2.3 q=55.0 size=     512KiB time=00:00:05.81 bitrate= 721.1kbits/s speed=0.038x elapsed=0:02:32.91    \nframe=  351 fps=2.3 q=52.0 size=     512KiB time=00:00:05.83 bitrate= 719.0kbits/s speed=0.038x elapsed=0:02:33.43    \nframe=  352 fps=2.3 q=53.0 size=     512KiB time=00:00:05.85 bitrate= 717.0kbits/s speed=0.038x elapsed=0:02:33.95    \nframe=  353 fps=2.3 q=52.0 size=     512KiB time=00:00:05.86 bitrate= 714.9kbits/s speed=0.038x elapsed=0:02:34.45    \nframe=  355 fps=2.3 q=51.0 size=     512KiB time=00:00:05.90 bitrate= 710.9kbits/s speed=0.0381x elapsed=0:02:34.97    \nframe=  356 fps=2.3 q=52.0 size=     512KiB time=00:00:05.91 bitrate= 708.9kbits/s speed=0.0381x elapsed=0:02:35.48    \nframe=  358 fps=2.3 q=54.0 size=     512KiB time=00:00:05.95 bitrate= 704.9kbits/s speed=0.0381x elapsed=0:02:36.00    \nframe=  359 fps=2.3 q=51.0 size=     512KiB time=00:00:05.96 bitrate= 703.0kbits/s speed=0.0381x elapsed=0:02:36.51    \nframe=  361 fps=2.3 q=51.0 size=     512KiB time=00:00:06.00 bitrate= 699.1kbits/s speed=0.0382x elapsed=0:02:37.03    \nframe=  364 fps=2.3 q=52.0 size=     512KiB time=00:00:06.05 bitrate= 693.3kbits/s speed=0.0384x elapsed=0:02:37.55    \nframe=  367 fps=2.3 q=51.0 size=     512KiB time=00:00:06.10 bitrate= 687.6kbits/s speed=0.0386x elapsed=0:02:38.06    \nframe=  369 fps=2.3 q=49.0 size=     512KiB time=00:00:06.13 bitrate= 683.9kbits/s speed=0.0387x elapsed=0:02:38.58    \nframe=  371 fps=2.3 q=51.0 size=     512KiB time=00:00:06.16 bitrate= 680.2kbits/s speed=0.0388x elapsed=0:02:39.11    \nframe=  373 fps=2.3 q=51.0 size=     512KiB time=00:00:06.20 bitrate= 676.5kbits/s speed=0.0388x elapsed=0:02:39.63    \nframe=  375 fps=2.3 q=51.0 size=     512KiB time=00:00:06.23 bitrate= 672.9kbits/s speed=0.0389x elapsed=0:02:40.16    \nframe=  376 fps=2.3 q=51.0 size=     512KiB time=00:00:06.25 bitrate= 671.1kbits/s speed=0.0389x elapsed=0:02:40.67    \nframe=  378 fps=2.3 q=47.0 size=     512KiB time=00:00:06.28 bitrate= 667.5kbits/s speed=0.039x elapsed=0:02:41.19    \nframe=  380 fps=2.3 q=51.0 size=     512KiB time=00:00:06.30 bitrate= 665.8kbits/s speed=0.039x elapsed=0:02:41.73    \nframe=  382 fps=2.4 q=51.0 size=     512KiB time=00:00:06.33 bitrate= 662.3kbits/s speed=0.039x elapsed=0:02:42.30    \nframe=  382 fps=2.3 q=51.0 size=     512KiB time=00:00:06.35 bitrate= 660.5kbits/s speed=0.039x elapsed=0:02:42.84    \nframe=  384 fps=2.4 q=51.0 size=     512KiB time=00:00:06.38 bitrate= 657.1kbits/s speed=0.0391x elapsed=0:02:43.35    \nframe=  385 fps=2.3 q=47.0 size=     512KiB time=00:00:06.40 bitrate= 655.4kbits/s speed=0.0391x elapsed=0:02:43.87    \nframe=  387 fps=2.4 q=51.0 size=     512KiB time=00:00:06.43 bitrate= 652.0kbits/s speed=0.0391x elapsed=0:02:44.40    \nframe=  388 fps=2.4 q=51.0 size=     512KiB time=00:00:06.45 bitrate= 650.3kbits/s speed=0.0391x elapsed=0:02:44.94    \nframe=  389 fps=2.4 q=51.0 size=     512KiB time=00:00:06.46 bitrate= 648.6kbits/s speed=0.0391x elapsed=0:02:45.45    \nframe=  392 fps=2.4 q=51.0 size=     512KiB time=00:00:06.51 bitrate= 643.6kbits/s speed=0.0393x elapsed=0:02:45.97    \nframe=  392 fps=2.4 q=51.0 size=     512KiB time=00:00:06.51 bitrate= 643.6kbits/s speed=0.0391x elapsed=0:02:46.54    \nframe=  396 fps=2.4 q=50.0 size=     512KiB time=00:00:06.58 bitrate= 637.1kbits/s speed=0.0394x elapsed=0:02:47.07    \nframe=  397 fps=2.4 q=50.0 size=     512KiB time=00:00:06.60 bitrate= 635.5kbits/s speed=0.0394x elapsed=0:02:47.60    \nframe=  400 fps=2.4 q=49.0 size=     512KiB time=00:00:06.65 bitrate= 630.7kbits/s speed=0.0395x elapsed=0:02:48.18    \nframe=  401 fps=2.4 q=50.0 size=     512KiB time=00:00:06.66 bitrate= 629.1kbits/s speed=0.0395x elapsed=0:02:48.72    \nframe=  402 fps=2.4 q=42.0 size=     512KiB time=00:00:06.68 bitrate= 627.6kbits/s speed=0.0395x elapsed=0:02:49.24    \nframe=  404 fps=2.4 q=50.0 size=     512KiB time=00:00:06.71 bitrate= 624.5kbits/s speed=0.0396x elapsed=0:02:49.77    \nframe=  406 fps=2.4 q=50.0 size=     512KiB time=00:00:06.75 bitrate= 621.4kbits/s speed=0.0396x elapsed=0:02:50.28    \nframe=  408 fps=2.4 q=50.0 size=     512KiB time=00:00:06.76 bitrate= 619.8kbits/s speed=0.0396x elapsed=0:02:50.80    \nframe=  408 fps=2.4 q=50.0 size=     512KiB time=00:00:06.78 bitrate= 618.3kbits/s speed=0.0396x elapsed=0:02:51.36    \nframe=  411 fps=2.4 q=51.0 size=     512KiB time=00:00:06.83 bitrate= 613.8kbits/s speed=0.0397x elapsed=0:02:51.91    \nframe=  413 fps=2.4 q=49.0 size=     512KiB time=00:00:06.86 bitrate= 610.8kbits/s speed=0.0398x elapsed=0:02:52.44    \nframe=  415 fps=2.4 q=50.0 size=     512KiB time=00:00:06.90 bitrate= 607.9kbits/s speed=0.0399x elapsed=0:02:52.95    \nframe=  416 fps=2.4 q=49.0 size=     512KiB time=00:00:06.91 bitrate= 606.4kbits/s speed=0.0399x elapsed=0:02:53.47    \nframe=  418 fps=2.4 q=43.0 size=     512KiB time=00:00:06.95 bitrate= 603.5kbits/s speed=0.0399x elapsed=0:02:54.01    \nframe=  420 fps=2.4 q=51.0 size=     512KiB time=00:00:06.98 bitrate= 600.6kbits/s speed=0.04x elapsed=0:02:54.54    \nframe=  423 fps=2.4 q=51.0 size=     512KiB time=00:00:07.03 bitrate= 596.3kbits/s speed=0.0402x elapsed=0:02:55.05    \nframe=  424 fps=2.4 q=51.0 size=     512KiB time=00:00:07.05 bitrate= 594.9kbits/s speed=0.0402x elapsed=0:02:55.58    \nframe=  426 fps=2.4 q=47.0 size=     512KiB time=00:00:07.08 bitrate= 592.1kbits/s speed=0.0402x elapsed=0:02:56.12    \nframe=  428 fps=2.4 q=50.0 size=     512KiB time=00:00:07.11 bitrate= 589.4kbits/s speed=0.0403x elapsed=0:02:56.64    \nframe=  430 fps=2.4 q=50.0 size=     512KiB time=00:00:07.15 bitrate= 586.6kbits/s speed=0.0404x elapsed=0:02:57.16    \nframe=  432 fps=2.4 q=49.0 size=     512KiB time=00:00:07.18 bitrate= 583.9kbits/s speed=0.0404x elapsed=0:02:57.73    \nframe=  434 fps=2.4 q=43.0 size=     512KiB time=00:00:07.21 bitrate= 581.2kbits/s speed=0.0405x elapsed=0:02:58.28    \nframe=  435 fps=2.4 q=50.0 size=     512KiB time=00:00:07.23 bitrate= 579.9kbits/s speed=0.0405x elapsed=0:02:58.82    \nframe=  437 fps=2.4 q=50.0 size=     512KiB time=00:00:07.26 bitrate= 577.2kbits/s speed=0.0405x elapsed=0:02:59.38    \nframe=  439 fps=2.4 q=50.0 size=     512KiB time=00:00:07.30 bitrate= 574.6kbits/s speed=0.0406x elapsed=0:02:59.91    \nframe=  441 fps=2.4 q=50.0 size=     512KiB time=00:00:07.33 bitrate= 572.0kbits/s speed=0.0406x elapsed=0:03:00.44    \nframe=  444 fps=2.5 q=51.0 size=     512KiB time=00:00:07.38 bitrate= 568.1kbits/s speed=0.0408x elapsed=0:03:00.97    \nframe=  445 fps=2.5 q=51.0 size=     512KiB time=00:00:07.40 bitrate= 566.8kbits/s speed=0.0408x elapsed=0:03:01.50    \nframe=  447 fps=2.5 q=50.0 size=     512KiB time=00:00:07.43 bitrate= 564.3kbits/s speed=0.0408x elapsed=0:03:02.03    \nframe=  450 fps=2.5 q=42.0 size=     512KiB time=00:00:07.48 bitrate= 560.5kbits/s speed=0.041x elapsed=0:03:02.62    \nframe=  451 fps=2.5 q=51.0 size=     512KiB time=00:00:07.50 bitrate= 559.2kbits/s speed=0.0409x elapsed=0:03:03.17    \nframe=  454 fps=2.5 q=52.0 size=     512KiB time=00:00:07.55 bitrate= 555.5kbits/s speed=0.0411x elapsed=0:03:03.77    \nframe=  455 fps=2.5 q=51.0 size=     512KiB time=00:00:07.55 bitrate= 555.5kbits/s speed=0.041x elapsed=0:03:04.29    \nframe=  456 fps=2.5 q=52.0 size=     512KiB time=00:00:07.58 bitrate= 553.1kbits/s speed=0.041x elapsed=0:03:04.88    \nframe=  458 fps=2.5 q=46.0 size=     512KiB time=00:00:07.61 bitrate= 550.7kbits/s speed=0.0411x elapsed=0:03:05.40    \nframe=  459 fps=2.5 q=51.0 size=     512KiB time=00:00:07.63 bitrate= 549.5kbits/s speed=0.0411x elapsed=0:03:05.93    \nframe=  462 fps=2.5 q=53.0 size=     512KiB time=00:00:07.68 bitrate= 545.9kbits/s speed=0.0412x elapsed=0:03:06.46    \nframe=  462 fps=2.5 q=53.0 size=     512KiB time=00:00:07.68 bitrate= 545.9kbits/s speed=0.0411x elapsed=0:03:07.11    \nframe=  463 fps=2.5 q=51.0 size=     512KiB time=00:00:07.70 bitrate= 544.7kbits/s speed=0.041x elapsed=0:03:07.64    \nframe=  466 fps=2.5 q=42.0 size=     512KiB time=00:00:07.75 bitrate= 541.2kbits/s speed=0.0412x elapsed=0:03:08.17    \nframe=  468 fps=2.5 q=52.0 size=     512KiB time=00:00:07.78 bitrate= 538.9kbits/s speed=0.0412x elapsed=0:03:08.75    \nframe=  470 fps=2.5 q=54.0 size=     512KiB time=00:00:07.81 bitrate= 536.6kbits/s speed=0.0413x elapsed=0:03:09.32    \nframe=  472 fps=2.5 q=52.0 size=     512KiB time=00:00:07.83 bitrate= 535.4kbits/s speed=0.0412x elapsed=0:03:09.94    \nframe=  473 fps=2.5 q=51.0 size=     512KiB time=00:00:07.86 bitrate= 533.2kbits/s speed=0.0413x elapsed=0:03:10.56    \nframe=  475 fps=2.5 q=51.0 size=     512KiB time=00:00:07.90 bitrate= 530.9kbits/s speed=0.0413x elapsed=0:03:11.08    \nframe=  478 fps=2.5 q=54.0 size=     512KiB time=00:00:07.95 bitrate= 527.6kbits/s speed=0.0415x elapsed=0:03:11.63    \nframe=  478 fps=2.5 q=54.0 size=     512KiB time=00:00:07.95 bitrate= 527.6kbits/s speed=0.0414x elapsed=0:03:12.16    \nframe=  479 fps=2.5 q=51.0 size=     512KiB time=00:00:07.96 bitrate= 526.5kbits/s speed=0.0413x elapsed=0:03:12.68    \nframe=  482 fps=2.5 q=41.0 size=     512KiB time=00:00:08.01 bitrate= 523.2kbits/s speed=0.0415x elapsed=0:03:13.20    \nframe=  484 fps=2.5 q=52.0 size=     512KiB time=00:00:08.05 bitrate= 521.0kbits/s speed=0.0416x elapsed=0:03:13.73    \nframe=  486 fps=2.5 q=53.0 size=     512KiB time=00:00:08.08 bitrate= 518.9kbits/s speed=0.0416x elapsed=0:03:14.26    \nframe=  489 fps=2.5 q=51.0 size=     512KiB time=00:00:08.11 bitrate= 516.8kbits/s speed=0.0417x elapsed=0:03:14.79    \nframe=  490 fps=2.5 q=46.0 size=     512KiB time=00:00:08.15 bitrate= 514.6kbits/s speed=0.0417x elapsed=0:03:15.34    \nframe=  493 fps=2.5 q=51.0 size=     512KiB time=00:00:08.20 bitrate= 511.5kbits/s speed=0.0419x elapsed=0:03:15.87    \nframe=  493 fps=2.5 q=51.0 size=     512KiB time=00:00:08.20 bitrate= 511.5kbits/s speed=0.0418x elapsed=0:03:16.39    \nframe=  494 fps=2.5 q=53.0 size=     512KiB time=00:00:08.21 bitrate= 510.5kbits/s speed=0.0417x elapsed=0:03:16.93    \nframe=  494 fps=2.5 q=53.0 size=     512KiB time=00:00:08.21 bitrate= 510.5kbits/s speed=0.0416x elapsed=0:03:17.45    \nframe=  496 fps=2.5 q=52.0 size=     512KiB time=00:00:08.25 bitrate= 508.4kbits/s speed=0.0417x elapsed=0:03:17.97    \nframe=  499 fps=2.5 q=51.0 size=     512KiB time=00:00:08.30 bitrate= 505.3kbits/s speed=0.0418x elapsed=0:03:18.51    \nframe=  501 fps=2.5 q=51.0 size=     512KiB time=00:00:08.33 bitrate= 503.3kbits/s speed=0.0419x elapsed=0:03:19.02    \nframe=  506 fps=2.5 q=46.0 size=     512KiB time=00:00:08.41 bitrate= 498.3kbits/s speed=0.0422x elapsed=0:03:19.53    \nframe=  510 fps=2.5 q=53.0 size=     512KiB time=00:00:08.45 bitrate= 496.4kbits/s speed=0.0422x elapsed=0:03:20.07    \nframe=  512 fps=2.5 q=52.0 size=     512KiB time=00:00:08.51 bitrate= 492.5kbits/s speed=0.0424x elapsed=0:03:20.78    \nframe=  514 fps=2.6 q=42.0 size=     512KiB time=00:00:08.55 bitrate= 490.6kbits/s speed=0.0425x elapsed=0:03:21.36    \nframe=  514 fps=2.5 q=42.0 size=     512KiB time=00:00:08.55 bitrate= 490.6kbits/s speed=0.0423x elapsed=0:03:21.93    \nframe=  514 fps=2.5 q=42.0 size=     512KiB time=00:00:08.55 bitrate= 490.6kbits/s speed=0.0422x elapsed=0:03:22.48    \nframe=  514 fps=2.5 q=42.0 size=     512KiB time=00:00:08.55 bitrate= 490.6kbits/s speed=0.0421x elapsed=0:03:23.02    \nframe=  514 fps=2.5 q=42.0 size=     512KiB time=00:00:08.55 bitrate= 490.6kbits/s speed=0.042x elapsed=0:03:23.54    \nframe=  514 fps=2.5 q=42.0 size=     512KiB time=00:00:08.55 bitrate= 490.6kbits/s speed=0.0419x elapsed=0:03:24.05    \nframe=  514 fps=2.5 q=42.0 size=     512KiB time=00:00:08.55 bitrate= 490.6kbits/s speed=0.0418x elapsed=0:03:24.61    \nframe=  514 fps=2.5 q=42.0 size=     512KiB time=00:00:08.55 bitrate= 490.6kbits/s speed=0.0417x elapsed=0:03:25.15    \nframe=  514 fps=2.5 q=42.0 size=     512KiB time=00:00:08.55 bitrate= 490.6kbits/s speed=0.0416x elapsed=0:03:25.68    \nframe=  518 fps=2.5 q=53.0 size=     512KiB time=00:00:08.61 bitrate= 486.8kbits/s speed=0.0418x elapsed=0:03:26.24    \nframe=  520 fps=2.5 q=52.0 size=     512KiB time=00:00:08.65 bitrate= 484.9kbits/s speed=0.0418x elapsed=0:03:26.81    \nframe=  522 fps=2.5 q=45.0 size=     512KiB time=00:00:08.68 bitrate= 483.0kbits/s speed=0.0419x elapsed=0:03:27.36    \nframe=  522 fps=2.5 q=45.0 size=     512KiB time=00:00:08.68 bitrate= 483.0kbits/s speed=0.0418x elapsed=0:03:27.89    \nframe=  526 fps=2.5 q=53.0 size=     512KiB time=00:00:08.75 bitrate= 479.3kbits/s speed=0.042x elapsed=0:03:28.47    \nframe=  528 fps=2.5 q=52.0 size=     512KiB time=00:00:08.78 bitrate= 477.5kbits/s speed=0.042x elapsed=0:03:29.12    \nframe=  530 fps=2.5 q=40.0 size=     512KiB time=00:00:08.81 bitrate= 475.7kbits/s speed=0.0421x elapsed=0:03:29.62    \nframe=  530 fps=2.5 q=40.0 size=     512KiB time=00:00:08.81 bitrate= 475.7kbits/s speed=0.042x elapsed=0:03:30.15    \nframe=  530 fps=2.5 q=40.0 size=     512KiB time=00:00:08.81 bitrate= 475.7kbits/s speed=0.0418x elapsed=0:03:30.72    \nframe=  534 fps=2.5 q=51.0 size=     512KiB time=00:00:08.85 bitrate= 473.9kbits/s speed=0.0419x elapsed=0:03:31.27    \nframe=  536 fps=2.5 q=51.0 size=     512KiB time=00:00:08.88 bitrate= 472.2kbits/s speed=0.0419x elapsed=0:03:31.84    \nframe=  538 fps=2.5 q=47.0 size=     512KiB time=00:00:08.95 bitrate= 468.6kbits/s speed=0.0421x elapsed=0:03:32.41    \nframe=  538 fps=2.5 q=47.0 size=     512KiB time=00:00:08.95 bitrate= 468.6kbits/s speed=0.042x elapsed=0:03:33.23    \nframe=  542 fps=2.5 q=51.0 size=     512KiB time=00:00:08.98 bitrate= 466.9kbits/s speed=0.042x elapsed=0:03:34.10    \nframe=  546 fps=2.5 q=43.0 size=     512KiB time=00:00:09.05 bitrate= 463.5kbits/s speed=0.0421x elapsed=0:03:35.05    \nframe=  550 fps=2.5 q=53.0 size=     512KiB time=00:00:09.11 bitrate= 460.1kbits/s speed=0.0422x elapsed=0:03:35.94    \nframe=  550 fps=2.5 q=53.0 size=     512KiB time=00:00:09.15 bitrate= 458.4kbits/s speed=0.0422x elapsed=0:03:36.74    \nframe=  554 fps=2.5 q=46.0 size=     512KiB time=00:00:09.21 bitrate= 455.1kbits/s speed=0.0424x elapsed=0:03:37.26    \nframe=  554 fps=2.5 q=46.0 size=     512KiB time=00:00:09.21 bitrate= 455.1kbits/s speed=0.0423x elapsed=0:03:37.82    \nframe=  556 fps=2.5 q=52.0 size=     512KiB time=00:00:09.25 bitrate= 453.4kbits/s speed=0.0424x elapsed=0:03:38.36    \nframe=  558 fps=2.5 q=53.0 size=     512KiB time=00:00:09.28 bitrate= 451.8kbits/s speed=0.0424x elapsed=0:03:38.87    \nframe=  558 fps=2.5 q=53.0 size=     512KiB time=00:00:09.28 bitrate= 451.8kbits/s speed=0.0423x elapsed=0:03:39.40    \nframe=  562 fps=2.6 q=42.0 size=     512KiB time=00:00:09.35 bitrate= 448.6kbits/s speed=0.0425x elapsed=0:03:39.92    \nframe=  564 fps=2.6 q=51.0 size=     512KiB time=00:00:09.38 bitrate= 447.0kbits/s speed=0.0426x elapsed=0:03:40.49    \nframe=  566 fps=2.6 q=52.0 size=     512KiB time=00:00:09.41 bitrate= 445.4kbits/s speed=0.0426x elapsed=0:03:41.08    \nframe=  570 fps=2.6 q=47.0 size=     512KiB time=00:00:09.48 bitrate= 442.3kbits/s speed=0.0428x elapsed=0:03:41.62    \nframe=  570 fps=2.6 q=47.0 size=     512KiB time=00:00:09.48 bitrate= 442.3kbits/s speed=0.0427x elapsed=0:03:42.20    \nframe=  574 fps=2.6 q=51.0 size=     512KiB time=00:00:09.55 bitrate= 439.2kbits/s speed=0.0429x elapsed=0:03:42.71    \nframe=  576 fps=2.6 q=51.0 size=     512KiB time=00:00:09.58 bitrate= 437.7kbits/s speed=0.0429x elapsed=0:03:43.25    \nframe=  578 fps=2.6 q=43.0 size=     512KiB time=00:00:09.61 bitrate= 436.1kbits/s speed=0.043x elapsed=0:03:43.82    \nframe=  578 fps=2.6 q=43.0 size=     512KiB time=00:00:09.61 bitrate= 436.1kbits/s speed=0.0429x elapsed=0:03:44.33    \nframe=  580 fps=2.6 q=50.0 size=     512KiB time=00:00:09.65 bitrate= 434.6kbits/s speed=0.0429x elapsed=0:03:44.86    \nframe=  582 fps=2.6 q=50.0 size=     512KiB time=00:00:09.68 bitrate= 433.1kbits/s speed=0.043x elapsed=0:03:45.40    \nframe=  586 fps=2.6 q=47.0 size=     512KiB time=00:00:09.75 bitrate= 430.2kbits/s speed=0.0431x elapsed=0:03:45.95    \nframe=  590 fps=2.6 q=53.0 size=     512KiB time=00:00:09.81 bitrate= 427.3kbits/s speed=0.0433x elapsed=0:03:46.48    \nframe=  590 fps=2.6 q=53.0 size=     512KiB time=00:00:09.81 bitrate= 427.3kbits/s speed=0.0432x elapsed=0:03:47.11    \n[out#0/matroska @ 0000019f3e6e8ec0] video:991KiB audio:0KiB subtitle:0KiB other streams:0KiB global headers:0KiB muxing overhead: 0.331993%\nframe=  600 fps=2.6 q=55.0 Lsize=     995KiB time=00:00:09.98 bitrate= 816.1kbits/s speed=0.0439x elapsed=0:03:47.43    \n",
  "seconds": 228.6310920715332,
  "probe_out": {}
}